<svg xmlns="http://www.w3.org/2000/svg" width="512" height="512" viewBox="0 0 24 24"><g fill="none"><path d="M24 0v24H0V0zM12.594 23.258l-.012.002l-.071.035l-.02.004l-.014-.004l-.071-.036q-.016-.004-.024.006l-.004.01l-.017.428l.005.02l.01.013l.104.074l.015.004l.012-.004l.104-.074l.012-.016l.004-.017l-.017-.427q-.004-.016-.016-.018m.264-.113l-.014.002l-.184.093l-.01.01l-.003.011l.018.43l.005.012l.008.008l.201.092q.019.005.029-.008l.004-.014l-.034-.614q-.005-.018-.02-.022m-.715.002a.02.02 0 0 0-.027.006l-.006.014l-.034.614q.001.018.017.024l.015-.002l.201-.093l.01-.008l.003-.011l.018-.43l-.003-.012l-.01-.01z"/><path fill="currentColor" d="m21.238 17l-1.732 3a2 2 0 0 1-1.569.993l-.164.007H6.226q-.375-.001-.716-.133l-.165-.072L7.535 17zM8.577 3.339l2.268 3.929l-6.85 11.866L2.184 16a2 2 0 0 1 0-2L7.958 4c.156-.27.369-.494.619-.661M14.309 3a2 2 0 0 1 1.645.861L16.04 4l5.774 10c.149.258.236.54.26.828l.008.172h-4.464L10.69 3zM12 9.268L15.31 15H8.69z"/></g></svg>